<?xml version="1.0" standalone="no"?>
<svg viewBox="0 0 200 200" xmlns="http://www.w3.org/2000/svg">
  <path fill="#00EEFF" d="M37.8,-60.5C46.8,-60.4,50.2,-45.7,52,-33.2C53.7,-20.6,53.8,-10.3,58.7,2.9C63.7,16,73.5,32,70.9,43.1C68.3,54.2,53.3,60.2,39.4,60.6C25.5,61,12.8,55.7,0.1,55.5C-12.6,55.4,-25.3,60.5,-35.8,58.2C-46.3,55.9,-54.7,46.2,-64.2,35.2C-73.7,24.3,-84.3,12.1,-83.3,0.6C-82.4,-11,-69.9,-22.1,-57.9,-28.8C-45.9,-35.5,-34.6,-37.8,-25,-37.6C-15.5,-37.4,-7.7,-34.6,3.4,-40.4C14.5,-46.2,28.9,-60.7,37.8,-60.5Z" transform="translate(100 100)" />
</svg>
