<?xml version="1.0" standalone="no"?>
<svg viewBox="0 0 200 200" xmlns="http://www.w3.org/2000/svg">
  <path fill="#00EEFF" d="M23.3,-41.6C27.6,-37.9,26.7,-26.4,37.6,-18.2C48.5,-9.9,71.2,-5,78.9,4.4C86.5,13.8,79.1,27.6,65.9,31.9C52.7,36.1,33.8,30.9,21.8,31.4C9.9,31.9,5,38.1,0.1,37.9C-4.7,37.7,-9.4,31,-16.8,27.9C-24.3,24.9,-34.5,25.3,-40.5,21.3C-46.4,17.2,-48.1,8.6,-50.7,-1.5C-53.3,-11.6,-56.7,-23.1,-56,-36.4C-55.4,-49.7,-50.7,-64.6,-40.6,-65.1C-30.6,-65.5,-15.3,-51.5,-2.9,-46.4C9.5,-41.4,19,-45.4,23.3,-41.6Z" transform="translate(100 100)" />
</svg>
