<?xml version="1.0" standalone="no"?>
<svg viewBox="0 0 200 200" xmlns="http://www.w3.org/2000/svg">
  <path fill="#00EEFF" d="M26.2,-53.4C33.3,-41.3,38,-33,49.2,-24.7C60.4,-16.4,78.2,-8.2,79.5,0.7C80.8,9.7,65.6,19.4,53.9,26.9C42.3,34.5,34.2,39.8,25.8,40.8C17.4,41.7,8.7,38.2,-1.9,41.5C-12.4,44.7,-24.8,54.6,-31,52.4C-37.1,50.1,-37.1,35.7,-43.6,25C-50.2,14.2,-63.5,7.1,-69.9,-3.7C-76.3,-14.5,-75.7,-29,-69.2,-39.7C-62.6,-50.5,-49.9,-57.5,-37.4,-66.4C-24.8,-75.3,-12.4,-86.1,-1.4,-83.7C9.6,-81.2,19.1,-65.4,26.2,-53.4Z" transform="translate(100 100)" />
</svg>
